<svg width="40" height="45" viewBox="0 0 40 45" fill="none" xmlns="http://www.w3.org/2000/svg">
<g style="mix-blend-mode:overlay">
<path d="M15.5408 28.653C15.3459 28.653 15.1511 28.5124 15.0213 28.3014L4.63452 11.4266C4.50469 11.2156 4.50481 10.9344 4.56986 10.7234C4.63492 10.5125 4.89483 10.3719 5.15468 10.3719H25.9428C26.2027 10.3719 26.3975 10.5125 26.5273 10.7234C26.6572 10.9344 26.657 11.2156 26.527 11.4266L16.1256 28.3014C15.9307 28.5124 15.7357 28.653 15.5408 28.653ZM6.38837 11.7781L15.5417 26.6843L24.7079 11.7781H6.38837Z" fill="white"/>
</g>
<g style="mix-blend-mode:overlay">
<path d="M20.2675 6.16859L14.9023 15.9702L16.02 16.6865L21.3852 6.88493L20.2675 6.16859Z" fill="white"/>
</g>
<g style="mix-blend-mode:overlay">
<path d="M16.186 27.9499H14.8867L14.8818 39.1998H16.1811L16.186 27.9499Z" fill="white"/>
</g>
<g style="mix-blend-mode:overlay">
<path d="M21.3847 38.4966H9.69141L9.6908 39.9029H21.3841L21.3847 38.4966Z" fill="white"/>
</g>
</svg>
