<?xml version="1.0" standalone="no"?>
<!DOCTYPE svg PUBLIC "-//W3C//DTD SVG 20010904//EN"
 "http://www.w3.org/TR/2001/REC-SVG-20010904/DTD/svg10.dtd">
<svg version="1.0" xmlns="http://www.w3.org/2000/svg"
 width="26.000000pt" height="30.000000pt" viewBox="0 0 348.000000 366.000000"
 preserveAspectRatio="xMidYMid meet">

<g transform="translate(0.000000,366.000000) scale(0.100000,-0.100000)"
fill="#000000" stroke="none">
<path d="M1148 3221 c15 -9 -86 -21 -177 -21 -35 0 -58 -5 -65 -15 -6 -8 -24
-17 -41 -20 -16 -3 -35 -7 -41 -8 -6 -2 -40 -22 -76 -45 -35 -23 -69 -42 -74
-42 -19 0 -173 -166 -198 -214 -14 -27 -37 -59 -50 -71 -14 -13 -27 -39 -31
-61 -3 -22 -13 -51 -21 -66 -8 -14 -14 -37 -14 -51 0 -13 -7 -41 -15 -61 -14
-33 -15 -127 -13 -754 3 -664 4 -719 20 -742 10 -13 18 -36 18 -50 0 -15 7
-35 15 -46 8 -10 15 -29 15 -41 0 -13 16 -45 35 -72 19 -26 35 -53 35 -58 0
-19 89 -126 137 -166 26 -21 71 -50 102 -64 30 -14 64 -37 75 -50 13 -14 37
-26 61 -30 22 -4 46 -12 53 -20 7 -7 28 -13 46 -13 18 0 62 -3 97 -7 58 -7 61
-8 29 -14 -19 -3 280 -6 665 -6 385 0 673 3 640 7 l-60 7 49 1 c78 3 226 24
226 32 0 4 12 11 28 14 24 6 139 71 152 86 3 3 19 14 35 24 55 34 155 133 155
153 0 7 12 23 26 36 30 25 84 132 85 168 0 14 3 18 6 10 3 -8 15 17 26 55 21
67 21 91 22 820 0 547 -3 755 -11 765 -7 8 -15 33 -19 56 -3 23 -13 44 -21 47
-8 3 -14 19 -14 35 0 16 -4 32 -9 35 -5 3 -27 37 -50 76 -23 38 -57 87 -76
107 -19 21 -35 41 -35 46 0 4 -5 7 -12 7 -6 0 -18 6 -27 14 -9 8 -29 26 -44
40 -15 15 -45 33 -65 41 -20 9 -39 19 -42 24 -9 13 -95 51 -116 51 -11 0 -29
6 -40 14 -12 9 -64 17 -134 22 -84 6 -106 10 -80 15 19 3 -242 7 -580 8 -338
0 -609 -3 -602 -8z m1329 -233 c11 -10 30 -18 44 -18 34 0 132 -59 204 -122
62 -53 122 -131 139 -178 5 -14 13 -28 17 -31 5 -3 14 -32 20 -65 6 -32 15
-64 20 -71 6 -7 9 -274 8 -708 -1 -668 -2 -698 -20 -716 -11 -11 -19 -33 -19
-50 0 -17 -7 -37 -15 -45 -8 -9 -15 -24 -15 -34 0 -10 -8 -25 -18 -32 -11 -7
-30 -31 -44 -53 -29 -46 -58 -73 -144 -137 -64 -48 -97 -64 -127 -59 -9 1 -24
-5 -33 -13 -8 -9 -32 -16 -52 -16 -20 0 -55 -3 -77 -7 -36 -6 -38 -7 -15 -14
14 -4 -272 -7 -635 -6 -363 0 -642 3 -620 5 33 4 25 7 -54 18 -51 6 -96 16
-100 21 -3 5 -41 27 -84 49 -74 37 -130 82 -188 150 -29 34 -94 164 -103 204
-3 14 -12 50 -21 80 -13 48 -15 138 -13 710 l3 655 38 92 c21 51 45 97 53 104
8 6 14 18 14 26 0 24 99 131 158 169 89 60 165 95 174 81 5 -9 11 -7 20 5 8
11 31 19 63 21 28 2 354 4 726 3 630 -1 678 -2 696 -18z"/>
<path d="M2457 2693 c-4 -3 -7 -19 -7 -35 0 -17 -4 -27 -10 -23 -10 6 -14 -6
-10 -38 2 -23 37 -60 76 -80 28 -15 33 -15 44 -2 7 8 18 15 25 15 6 0 20 9 30
20 23 26 17 117 -11 137 -18 13 -125 18 -137 6z"/>
<path d="M1623 2493 c-38 -3 -66 -9 -73 -18 -7 -8 -20 -15 -30 -15 -10 0 -23
-7 -30 -15 -7 -8 -23 -15 -35 -15 -59 0 -285 -196 -285 -247 0 -7 -9 -17 -20
-23 -11 -6 -20 -20 -20 -31 0 -11 -4 -17 -10 -14 -6 4 -10 -6 -10 -22 0 -16
-8 -39 -17 -53 -11 -16 -19 -52 -22 -109 -5 -81 -6 -83 -12 -36 -4 33 -6 9 -6
-70 0 -66 3 -104 6 -85 6 29 8 23 13 -40 4 -53 15 -95 37 -142 17 -36 31 -71
31 -76 0 -19 118 -158 158 -186 23 -16 42 -33 42 -37 0 -5 6 -9 14 -9 7 0 19
-7 26 -15 7 -8 28 -18 48 -21 20 -4 43 -13 50 -21 7 -7 21 -13 29 -13 9 0 24
-7 34 -16 15 -13 46 -16 185 -16 92 0 170 5 173 10 3 5 30 15 59 22 28 6 52
15 52 20 0 4 19 15 43 24 40 15 105 63 151 113 12 12 42 43 69 69 26 26 47 52
47 58 0 6 9 28 20 49 11 21 21 50 22 65 2 15 13 42 25 61 21 31 23 44 22 170
-1 84 -4 126 -9 111 -6 -18 -8 -5 -9 46 -1 57 -5 74 -21 89 -11 10 -20 23 -20
30 0 27 -63 124 -119 185 -33 36 -60 68 -61 73 0 4 -7 7 -15 7 -8 0 -23 8 -33
18 -47 47 -177 101 -249 103 -33 1 -34 2 -13 8 19 6 10 9 -39 14 -35 4 -80 6
-100 5 -20 -1 -64 -3 -98 -5z m0 -20 c-7 -2 -21 -2 -30 0 -10 3 -4 5 12 5 17
0 24 -2 18 -5z m212 -193 c-3 -5 21 -14 52 -20 32 -7 60 -16 63 -20 3 -4 24
-19 47 -33 50 -32 134 -130 168 -197 16 -31 25 -67 26 -97 0 -36 3 -43 9 -28
8 18 9 17 9 -8 1 -16 -3 -26 -7 -23 -5 3 -9 -1 -9 -9 0 -8 5 -15 10 -15 10 0
7 -29 -13 -125 -18 -85 -37 -121 -102 -193 -72 -80 -143 -132 -183 -132 -16 0
-39 -7 -49 -15 -29 -22 -248 -21 -266 0 -7 8 -30 18 -52 21 -27 5 -35 10 -26
15 9 6 7 9 -8 9 -12 0 -39 16 -60 35 -21 19 -41 35 -45 35 -8 0 -75 99 -102
150 -10 21 -21 70 -25 120 -6 77 -7 81 -13 40 -6 -41 -6 -40 -7 20 0 41 2 58
7 45 6 -15 10 -4 15 40 10 83 75 215 123 252 20 15 48 38 62 51 13 12 35 25
48 28 13 4 23 10 23 14 0 12 58 30 97 30 19 0 32 4 28 9 -3 5 7 11 22 13 49 5
163 -3 158 -12z m562 -582 c-3 -8 -6 -5 -6 6 -1 11 2 17 5 13 3 -3 4 -12 1
-19z"/>
</g>
</svg>
