<?xml version="1.0" standalone="no"?>
<!DOCTYPE svg PUBLIC "-//W3C//DTD SVG 20010904//EN"
 "http://www.w3.org/TR/2001/REC-SVG-20010904/DTD/svg10.dtd">
<svg version="1.0" xmlns="http://www.w3.org/2000/svg"
 width="26.000000pt" height="30.000000pt" viewBox="0 0 125.000000 188.000000"
 preserveAspectRatio="xMidYMid meet">

<g transform="translate(0.000000,188.000000) scale(0.100000,-0.100000)"
fill="#000000" stroke="none">
<path d="M715 1733 c-16 -3 -34 -9 -39 -14 -6 -5 -20 -9 -33 -9 -13 0 -23 -4
-23 -9 0 -5 -11 -12 -25 -15 -14 -4 -25 -11 -25 -16 0 -6 -6 -10 -13 -10 -18
0 -87 -69 -87 -87 0 -7 -4 -13 -8 -13 -12 0 -42 -56 -42 -79 0 -12 -4 -21 -10
-21 -5 0 -10 -11 -10 -25 0 -14 -4 -25 -10 -25 -6 0 -10 -47 -10 -120 l0 -120
-73 0 c-81 0 -123 -15 -131 -45 -3 -11 -6 -86 -6 -167 0 -187 1 -188 125 -188
l85 0 0 -269 c0 -268 0 -270 22 -285 33 -23 348 -24 348 -1 0 8 5 15 10 15 6
0 10 97 10 270 l0 270 88 0 c98 1 125 14 135 65 17 83 33 144 40 151 4 4 7 22
7 40 0 18 5 36 10 39 5 3 10 21 10 39 0 51 -40 66 -179 66 l-111 0 0 85 c0
100 -11 93 151 97 71 2 112 8 123 17 14 11 16 38 16 177 0 206 10 195 -180
193 -74 -1 -148 -4 -165 -6z m245 -183 l0 -90 -89 0 c-50 0 -93 -4 -96 -10 -3
-5 -15 -10 -26 -10 -24 0 -58 -37 -59 -62 0 -9 -4 -20 -10 -23 -6 -4 -10 -59
-10 -131 0 -163 -4 -158 152 -162 l118 -4 0 -28 c0 -16 -4 -32 -10 -35 -5 -3
-10 -17 -10 -31 0 -14 -7 -40 -14 -59 l-15 -35 -100 0 c-83 0 -101 -3 -101
-15 0 -8 -4 -15 -10 -15 -6 0 -10 -97 -10 -270 l0 -270 -23 -5 c-12 -3 -54 -5
-92 -3 l-70 3 -3 273 c-2 216 -5 277 -16 287 -9 10 -45 15 -107 17 l-94 3 0
90 0 90 95 5 c121 6 120 4 120 203 0 91 4 147 10 147 6 0 10 11 10 25 0 14 5
25 10 25 6 0 10 5 10 11 0 22 71 99 115 125 53 31 110 41 233 43 l92 1 0 -90z"/>
</g>
</svg>
