<?xml version="1.0" standalone="no"?>
<!DOCTYPE svg PUBLIC "-//W3C//DTD SVG 20010904//EN"
 "http://www.w3.org/TR/2001/REC-SVG-20010904/DTD/svg10.dtd">
<svg version="1.0" xmlns="http://www.w3.org/2000/svg"
 width="26.000000pt" height="30.000000pt" viewBox="0 0 177.000000 177.000000"
 preserveAspectRatio="xMidYMid meet">

<g transform="translate(0.000000,177.000000) scale(0.100000,-0.100000)"
fill="#000000" stroke="none">
<path d="M755 1670 c-87 -12 -125 -21 -131 -31 -3 -5 -13 -9 -22 -9 -27 0
-172 -77 -198 -105 -13 -14 -26 -25 -29 -25 -14 0 -85 -68 -85 -81 0 -6 -15
-25 -33 -42 -31 -31 -87 -129 -87 -155 0 -6 -4 -12 -10 -12 -5 0 -12 -16 -16
-35 -3 -19 -10 -38 -15 -41 -5 -3 -9 -15 -9 -28 0 -12 -5 -27 -10 -32 -27 -27
-9 -357 21 -399 4 -5 10 -27 14 -47 4 -21 11 -38 16 -38 5 0 9 -7 9 -15 0 -8
4 -15 9 -15 5 0 12 -13 16 -29 3 -16 16 -40 28 -53 12 -13 35 -42 52 -64 31
-41 94 -104 104 -104 3 0 22 -14 41 -30 19 -17 45 -33 57 -36 13 -4 23 -10 23
-15 0 -5 9 -9 20 -9 11 0 20 -4 20 -10 0 -5 18 -13 40 -16 22 -4 40 -10 40
-15 0 -5 10 -9 23 -9 13 0 28 -5 34 -11 16 -16 248 -23 318 -9 106 20 115 22
115 30 0 4 18 10 40 14 22 3 40 11 40 16 0 6 9 10 20 10 11 0 20 4 20 9 0 5
10 12 23 15 47 12 247 203 247 236 0 5 4 10 9 10 5 0 13 10 17 23 4 12 10 24
13 27 10 7 41 76 41 89 0 6 4 19 9 29 17 33 32 97 39 172 8 86 -3 259 -18 274
-5 5 -10 20 -10 33 0 13 -4 23 -10 23 -5 0 -10 10 -10 23 0 13 -7 32 -15 43
-8 10 -15 27 -15 37 0 9 -4 17 -9 17 -5 0 -11 8 -15 18 -16 48 -122 168 -201
227 -22 17 -42 32 -45 35 -3 3 -25 14 -50 25 -25 11 -47 22 -50 25 -8 10 -106
40 -129 40 -10 0 -21 4 -23 9 -4 12 -202 20 -273 11z m275 -110 c3 -4 21 -10
40 -14 43 -8 90 -28 90 -38 0 -5 9 -8 20 -8 11 0 20 -4 20 -10 0 -5 6 -10 13
-10 34 0 217 -182 217 -217 0 -7 5 -13 10 -13 6 0 10 -6 10 -14 0 -8 3 -16 8
-18 9 -4 42 -100 42 -122 0 -9 4 -16 9 -16 10 0 24 -95 25 -170 0 -74 -15
-180 -25 -180 -5 0 -9 -13 -9 -29 0 -17 -4 -32 -9 -35 -5 -3 -12 -22 -15 -41
-4 -19 -10 -35 -15 -35 -4 0 -16 -16 -27 -35 -10 -19 -22 -35 -26 -35 -5 0 -8
-5 -8 -10 0 -14 -124 -140 -138 -140 -7 0 -12 -4 -12 -8 0 -13 -145 -82 -185
-89 -19 -3 -35 -9 -35 -13 0 -17 -167 -27 -252 -16 -66 8 -73 19 -53 77 8 23
15 52 15 65 0 14 4 32 9 42 15 29 41 127 41 155 0 36 20 34 50 -7 26 -35 84
-66 123 -66 13 0 28 -5 35 -12 9 -9 15 -9 24 0 7 7 28 12 47 12 20 0 45 7 55
15 11 8 25 15 32 15 15 0 104 83 104 97 0 6 9 18 20 28 11 10 23 36 26 57 4
21 10 38 15 38 5 0 9 15 9 34 0 19 5 38 10 41 19 12 5 184 -20 240 -4 11 -11
31 -14 45 -3 14 -14 35 -26 47 -11 12 -20 26 -20 31 0 12 -85 82 -99 82 -6 0
-11 4 -11 8 0 12 -67 42 -95 42 -14 0 -25 5 -25 10 0 6 -41 10 -103 10 -80 0
-114 -5 -157 -21 -30 -12 -65 -23 -77 -26 -13 -3 -23 -9 -23 -14 0 -5 -4 -9
-10 -9 -13 0 -140 -126 -140 -139 0 -6 -4 -11 -8 -11 -5 0 -17 -19 -28 -42
-15 -35 -19 -65 -19 -155 0 -76 4 -116 13 -124 6 -7 12 -21 12 -31 0 -10 5
-18 10 -18 6 0 10 -7 10 -15 0 -18 46 -65 65 -65 18 0 45 27 45 46 0 20 -33
94 -42 94 -5 0 -8 14 -8 30 0 17 -5 39 -12 49 -9 15 -9 35 2 90 7 39 16 71 19
71 4 0 15 15 26 33 18 32 64 77 77 77 4 0 13 6 20 13 7 6 31 21 53 31 22 10
48 23 57 27 25 12 195 11 203 -1 3 -5 17 -10 29 -10 13 0 29 -7 36 -15 7 -8
19 -15 27 -15 13 0 73 -54 73 -67 0 -4 9 -16 20 -28 13 -13 23 -42 27 -73 3
-29 10 -52 14 -52 5 0 9 -31 9 -70 0 -40 -4 -70 -10 -70 -5 0 -10 -11 -10 -25
0 -31 -29 -105 -41 -105 -5 0 -9 -6 -9 -14 0 -39 -167 -123 -193 -97 -6 6 -18
11 -27 11 -20 0 -70 54 -70 74 0 8 -4 18 -10 21 -22 14 -1 285 22 285 5 0 8
19 8 41 0 41 -18 68 -47 69 -18 0 -53 -41 -53 -62 0 -10 -4 -26 -9 -36 -12
-23 -33 -108 -39 -154 -2 -21 -8 -38 -13 -38 -5 0 -9 -14 -9 -30 0 -17 -7 -47
-15 -67 -8 -19 -15 -48 -15 -64 0 -15 -4 -31 -10 -34 -5 -3 -10 -16 -10 -28 0
-12 -7 -40 -15 -62 -8 -22 -14 -55 -15 -72 0 -18 -4 -33 -10 -33 -5 0 -10 -12
-11 -27 0 -16 -6 -44 -13 -63 -11 -28 -18 -34 -37 -32 -13 1 -25 7 -27 12 -2
6 -12 10 -23 10 -10 0 -19 5 -19 10 0 6 -5 10 -11 10 -6 0 -26 12 -44 28 -18
15 -46 38 -64 52 -17 14 -31 28 -31 32 0 5 -15 24 -34 44 -38 40 -100 158
-117 224 -15 55 -24 340 -11 340 6 0 13 20 16 45 4 24 11 47 17 50 5 4 9 15 9
26 0 10 5 19 10 19 6 0 10 5 10 10 0 21 71 122 118 169 115 114 262 185 407
194 69 4 229 -4 235 -13z"/>
</g>
</svg>
