<?xml version="1.0" standalone="no"?>
<!DOCTYPE svg PUBLIC "-//W3C//DTD SVG 20010904//EN"
 "http://www.w3.org/TR/2001/REC-SVG-20010904/DTD/svg10.dtd">
<svg version="1.0" xmlns="http://www.w3.org/2000/svg"
 width="26.000000pt" height="30.000000pt" viewBox="0 0 338.000000 342.000000"
 preserveAspectRatio="xMidYMid meet">

<g transform="translate(0.000000,342.000000) scale(0.100000,-0.100000)"
fill="#000000" stroke="none">
<path d="M1088 3081 c19 -11 -33 -21 -113 -21 -43 0 -66 -5 -75 -15 -7 -8 -25
-15 -41 -15 -16 0 -43 -9 -61 -20 -18 -11 -40 -20 -49 -20 -9 0 -19 -7 -23
-15 -3 -8 -12 -15 -20 -15 -8 0 -21 -6 -28 -13 -7 -7 -36 -27 -65 -45 -59 -38
-151 -135 -159 -169 -4 -13 -10 -23 -15 -23 -5 0 -9 -6 -9 -13 0 -7 -13 -31
-29 -53 -15 -21 -41 -75 -56 -119 l-29 -80 -4 -677 c-4 -668 4 -913 29 -929 6
-3 13 -24 16 -47 3 -26 16 -51 33 -69 15 -15 31 -39 35 -53 7 -24 86 -130 113
-154 8 -6 35 -29 60 -52 57 -50 211 -134 246 -134 13 0 26 -5 28 -11 2 -6 53
-16 113 -22 90 -10 103 -13 70 -18 -22 -3 275 -6 660 -6 385 0 678 3 650 7
l-50 7 45 2 c71 2 173 19 179 29 3 5 23 12 44 15 42 7 218 119 265 170 17 18
49 52 72 77 41 43 49 57 105 170 41 83 64 175 65 260 0 39 3 51 10 40 6 -10 9
216 9 645 -1 363 -5 644 -9 625 l-7 -35 -2 45 c-2 68 -20 171 -36 208 -8 17
-23 49 -32 70 -9 20 -20 39 -24 42 -3 3 -15 26 -27 52 -30 68 -161 201 -235
238 -33 16 -66 30 -73 30 -6 0 -14 7 -18 15 -3 8 -14 15 -23 15 -10 0 -29 7
-41 16 -12 8 -38 17 -58 19 -20 1 -39 8 -43 13 -3 5 -55 13 -116 18 -73 5
-102 10 -85 15 14 4 -252 7 -590 8 -338 0 -609 -3 -602 -8z m1402 -247 c36
-17 75 -34 88 -38 12 -4 20 -11 17 -16 -3 -4 10 -11 28 -14 21 -4 48 -22 74
-49 56 -58 150 -204 158 -247 4 -19 11 -40 16 -46 5 -6 12 -50 15 -98 4 -53
10 -82 15 -74 9 14 9 -2 9 -672 0 -502 0 -534 -9 -495 -5 22 -9 9 -14 -55 -4
-47 -15 -108 -25 -135 -20 -57 -52 -115 -64 -115 -4 0 -8 -9 -8 -19 0 -43
-226 -231 -277 -231 -8 0 -24 -6 -36 -14 -12 -8 -58 -17 -101 -21 -52 -5 -74
-10 -65 -16 8 -5 -248 -9 -619 -9 -362 0 -631 4 -628 9 3 5 -27 13 -67 19 -77
12 -174 53 -183 77 -4 8 -16 15 -28 15 -35 0 -151 123 -196 207 -22 40 -40 86
-40 100 0 14 -8 32 -18 39 -16 12 -17 57 -20 671 -3 631 3 837 28 853 4 3 27
46 51 95 48 100 124 185 184 206 19 7 35 16 35 20 0 15 68 49 97 49 17 0 36 7
43 15 17 21 64 22 805 21 l670 -1 65 -31z"/>
<path d="M1776 2611 c-10 -11 -15 -24 -12 -29 3 -6 -1 -12 -9 -15 -12 -5 -15
-108 -17 -728 -2 -549 -6 -723 -15 -726 -7 -3 -17 -20 -23 -39 -6 -19 -15 -34
-18 -34 -4 0 -31 -22 -61 -49 -52 -48 -83 -61 -142 -61 -16 0 -29 -4 -29 -10
0 -15 -99 -12 -115 4 -8 7 -31 17 -52 21 -28 5 -54 22 -95 63 -32 31 -58 65
-58 74 0 10 -10 36 -21 58 -18 35 -21 53 -17 129 3 66 8 93 21 105 9 10 17 24
17 33 0 17 68 87 115 118 50 33 83 44 152 51 87 9 103 25 103 104 l0 60 -42
21 c-34 18 -51 20 -103 14 -59 -6 -128 -24 -141 -37 -3 -4 -31 -19 -62 -34
-66 -32 -132 -82 -132 -100 0 -6 -11 -19 -24 -27 -13 -9 -30 -33 -37 -54 -6
-21 -15 -40 -18 -43 -4 -3 -17 -24 -29 -48 -20 -38 -22 -58 -22 -195 0 -110 4
-159 14 -177 8 -14 25 -47 40 -75 14 -27 60 -84 103 -126 80 -78 140 -112 221
-125 23 -4 39 -10 36 -15 -3 -5 53 -9 125 -9 71 0 131 4 133 8 2 5 43 29 91
52 68 34 102 59 147 107 52 56 110 150 110 180 0 6 7 13 15 17 13 5 15 76 15
556 0 630 -5 599 83 512 40 -40 63 -53 102 -62 27 -6 67 -21 88 -33 34 -19 54
-22 155 -22 l115 0 17 35 c12 23 16 48 13 73 -8 56 -48 81 -146 88 -43 3 -82
10 -85 15 -4 5 -32 20 -62 34 -30 13 -75 42 -100 63 -62 53 -140 147 -147 177
-6 23 -28 59 -63 102 -21 26 -110 25 -134 -1z"/>
<path d="M295 1670 c0 -349 1 -492 2 -317 2 174 2 460 0 635 -1 174 -2 31 -2
-318z"/>
</g>
</svg>
